# xmcd
#
# Track frame offsets: 
#        150
#        13172
#        26292
#        37250
#        50778
#        69666
#        85758
#        101120
#        114115
#        128138
#        146747
#        161156
#        179584
#        197676
#        211997
#        236230
#
# Disc length: 3928 seconds
#
# Revision: 0
# Processed by: cddbd v1.5.1PL0 Copyright (c) Steve Scherf et al.
# Submitted via: ExactAudioCopy v0.95a5
#
DISCID=ec0f5610
DTITLE=Zagorova Hana - Hanka
DYEAR=2001
DGENRE=
TTITLE0=Dopis na rozloucenou
TTITLE1=Zustan tady leto
TTITLE2=To prece neni nahodou
TTITLE3=Je naprosto nezbytne
TTITLE4=Kdyz jsi se mnou
TTITLE5=Ode zdi ke zdi
TTITLE6=Blahovolne
TTITLE7=Pokuseni
TTITLE8=Nebylo by kdyby
TTITLE9=Zavist
TTITLE10=Kdyz vchazis ranem
TTITLE11=Za kazdou chvili s tebou platim
TTITLE12=Skleneny dum
TTITLE13=Cas
TTITLE14=Dopis na rozloucenou
TTITLE15=Datova stopa
EXTD=
EXTT0=
EXTT1=
EXTT2=
EXTT3=
EXTT4=
EXTT5=
EXTT6=
EXTT7=
EXTT8=
EXTT9=
EXTT10=
EXTT11=
EXTT12=
EXTT13=
EXTT14=
EXTT15=
PLAYORDER=
